<?xml version="1.0" encoding="utf-8"?>
<!-- Generator: Adobe Illustrator 15.1.0, SVG Export Plug-In  -->
<!DOCTYPE svg PUBLIC "-//W3C//DTD SVG 1.1//EN" "http://www.w3.org/Graphics/SVG/1.1/DTD/svg11.dtd" [
	<!ENTITY ns_flows "http://ns.adobe.com/Flows/1.0/">
]>
<svg version="1.1"
	 xmlns="http://www.w3.org/2000/svg" xmlns:xlink="http://www.w3.org/1999/xlink" xmlns:a="http://ns.adobe.com/AdobeSVGViewerExtensions/3.0/"
	 x="0px" y="0px" width="18px" height="18px" viewBox="0 -0.833 18 18" overflow="visible" enable-background="new 0 -0.833 18 18"
	 xml:space="preserve">
<defs>
</defs>
<path id="Paper_clip_1_" fill="#B2C84C" d="M0,13.371c0-0.973,0.415-1.945,1.138-2.668l9.397-9.408C11.369,0.472,12.5,0,13.639,0
	C16.084,0,18,1.905,18,4.338c0,1.17-0.459,2.281-1.295,3.129l-7.338,7.326c-0.032,0.031-0.068,0.047-0.088,0.047
	c-0.152-0.035-0.646-0.529-0.682-0.693c0-0.031,0.027-0.066,0.048-0.088l7.351-7.338c0.64-0.653,1.006-1.518,1.006-2.37
	c0-1.852-1.473-3.303-3.352-3.303c-0.874,0-1.738,0.362-2.369,0.994l-9.409,9.396c-0.532,0.533-0.837,1.236-0.837,1.934
	c0,1.166,0.879,2.045,2.044,2.045c0.697,0,1.401-0.305,1.934-0.838l7.036-7.035c0.232-0.249,0.363-0.575,0.363-0.905
	c0-0.604-0.457-1.062-1.062-1.062c-0.316,0-0.631,0.131-0.887,0.37l-4.971,4.971c-0.032,0.031-0.068,0.047-0.088,0.047
	c-0.154-0.037-0.658-0.539-0.694-0.707c0.001-0.006,0.016-0.043,0.049-0.074l4.964-4.965c0.422-0.433,1.029-0.689,1.627-0.689
	c1.189,0,2.122,0.933,2.122,2.122c0,0.607-0.251,1.199-0.687,1.625l-7.039,7.037c-0.711,0.725-1.684,1.139-2.667,1.139
	C1.324,16.451,0,15.126,0,13.371z"/>
</svg>
